<svg xmlns="http://www.w3.org/2000/svg" xml:space="preserve" viewBox="0 0 920 920"><path d="M501.404 46.899v279.266l31.599-18.132-63.184-35.102-30.293-16.83c-7.569-4.205-15.684-5.25-23.673-.812l-8.977 4.987-85.963 47.756 31.599 18.133V46.898l-21 21h190.891c11.447 0 21-9.552 21-21s-9.553-21-21-21H331.512c-11.447 0-21 9.552-21 21v279.266c0 16.183 17.763 25.82 31.599 18.134l95.446-53.025h-21.198l95.446 53.025c13.836 7.687 31.599-1.951 31.599-18.133V46.898c0-11.448-9.553-21-21-21s-21 9.553-21 21zm-348.41 503.529h93.678c11.448 0 21-9.553 21-21s-9.552-21-21-21h-93.678c-11.447 0-21 9.553-21 21s9.553 21 21 21zm0 106.052H423.422c11.447 0 21-9.553 21-21s-9.553-21-21-21H152.994c-11.447 0-21 9.553-21 21s9.553 21 21 21z"/><path d="M803.647 137.042v390.092l35.85-14.85c-46.046-37.454-105.269-56.33-164.562-48.5-48.501 6.406-93.396 28.115-127.756 63.172-27.809 28.373-47.615 64.879-56.125 103.68-10.988 50.1-3.583 102.609 20.146 148.004l18.133-31.6H119.437c-1.412 0-2.821-.041-4.232-.096-1.387-.053-2.771-.17-4.154-.285a92.76 92.76 0 0 1-2.739-.295c3.315.463 3.822.516 1.521.158-5.319-.86-10.526-2.316-15.599-4.115-1.182-.42-5.566-2.23.079.157-1.218-.515-2.413-1.084-3.606-1.652-2.773-1.32-5.446-2.843-8.068-4.44-2.239-1.361-4.386-2.87-6.497-4.422 5.266 3.872-1.58-1.452-2.793-2.55-1.938-1.751-3.76-3.626-5.539-5.538-.89-.956-1.738-1.95-2.585-2.944l-1.653-2.024c1.938 2.535 2.242 2.909.914 1.122-3.115-4.236-5.76-8.802-8.088-13.511-.586-1.186-1.12-2.396-1.653-3.606 2.46 5.584.6 1.272.157.079-1.089-2.932-1.957-5.94-2.732-8.967-.674-2.63-1.168-5.303-1.601-7.981 1.093 6.769-.113-2.3-.206-4.026a83.507 83.507 0 0 1-.096-4.448V137.052a104.72 104.72 0 0 1 .171-5.604c.074-1.382.211-2.76.348-4.137.487-4.892-.78 4.98 0 .153.93-5.758 2.55-11.387 4.579-16.848 1.654-4.453-1.997 4.45-.086.115.533-1.21 1.119-2.394 1.704-3.578 1.167-2.36 2.487-4.64 3.855-6.885 1.363-2.24 2.871-4.386 4.423-6.497-3.556 4.836-.843 1.126-.036.152 1.111-1.341 2.289-2.626 3.475-3.901 1.78-1.912 3.682-3.707 5.619-5.458.969-.876 1.976-1.71 2.982-2.543 3.603-2.984-3.875 2.867-.104.094 4.592-3.375 9.563-6.207 14.703-8.655 1.147-.546 5.502-2.276-.152.018 1.233-.5 2.488-.945 3.743-1.39 2.528-.896 5.113-1.621 7.709-2.287 2.63-.674 5.302-1.168 7.98-1.601-6.22 1.005-1.455.213-.129.08 1.845-.183 3.698-.268 5.55-.338 1.31-.05 2.623-.043 3.934-.043H734.504c2.793 0 5.576.148 8.358.382 1.307.11 6.137.833-.128-.081 1.348.197 2.686.455 4.022.712 2.648.51 5.26 1.2 7.85 1.948 1.285.37 2.553.799 3.819 1.227s7.128 2.805 1.177.288c4.854 2.053 9.471 4.637 13.886 7.504 1.099.714 2.166 1.475 3.231 2.235 3.812 2.718-3.748-3.025-.104-.094 2.376 1.91 4.61 3.99 6.78 6.128 1.861 1.834 3.601 3.787 5.295 5.774.81.949 3.606 4.654-.035-.152.79 1.044 1.535 2.12 2.28 3.198 3.246 4.695 5.936 9.756 8.234 14.974-2.676-6.074.619 2.145 1.124 3.715.824 2.563 1.473 5.179 2.062 7.805.298 1.326.535 2.664.771 4 .854 4.816-.562-5.036 0-.152.374 3.23.497 6.484.521 9.732.088 11.446 9.486 21 21 21 11.381 0 21.088-9.552 21-21-.399-52.283-38.31-99.896-90.4-109.124-12.241-2.168-24.149-2.02-36.45-2.02H121.994c-34.104 0-67.655 14.139-88.927 41.38C17.383 87.368 8.265 111.38 8.265 137.065v532.684c0 24.193 4.266 47.624 17.718 68.335 21.241 32.702 57.406 50.959 96.073 50.959H529.334c16.488 0 25.408-17.682 18.133-31.6a231.173 231.173 0 0 1-4.925-10.004c-.219-.475-2.652-6.152-.852-1.831-.677-1.623-1.307-3.267-1.938-4.908-2.757-7.174-4.983-14.541-6.866-21.988-.878-3.478-1.611-6.99-2.296-10.51a192.26 192.26 0 0 1-.933-5.331c-.12-.725-.92-6.725-.268-1.602-1.009-7.918-1.417-15.903-1.454-23.882-.026-5.598.257-11.194.714-16.771.226-2.754.538-5.5.881-8.241-.784 6.28-.171 1.428.026.147.276-1.8.598-3.594.925-5.386 2.019-11.047 5.115-21.884 9.021-32.407.556-1.497 3.986-9.768 1.363-3.624 1.041-2.44 2.158-4.846 3.299-7.24 2.462-5.164 5.204-10.191 8.111-15.117 2.674-4.53 5.576-8.92 8.606-13.216.907-1.286 6.256-8.306 2.209-3.106 1.878-2.413 3.836-4.762 5.825-7.083 7.101-8.29 14.972-15.9 23.351-22.887l3.053-2.477c3.664-2.932-3.843 2.909-.101.076 2.092-1.584 4.232-3.104 6.387-4.603 4.682-3.255 9.535-6.256 14.482-9.087 3.439-1.968 6.957-3.794 10.51-5.547a197.378 197.378 0 0 1 4.791-2.264l2.422-1.084c4.347-1.927-4.523 1.855-.121.047 7.433-3.054 15.08-5.563 22.832-7.666 3.921-1.063 7.885-1.962 11.864-2.776 1.781-.364 3.57-.685 5.36-1 1.467-.256 9.352-1.367 2.552-.47 8.877-1.172 17.833-1.626 26.782-1.586 5.258.023 10.511.326 15.748.77 2.302.196 4.597.463 6.89.739-2.732-.377-2.888-.39-.464-.04 1.696.252 3.386.548 5.075.843 10.558 1.85 20.922 4.714 31.021 8.285 2.103.743 4.182 1.55 6.257 2.366 2.195.898 2.064.829-.393-.206 1.532.649 3.048 1.338 4.563 2.025 4.529 2.058 8.95 4.347 13.307 6.746 4.338 2.39 8.551 4.999 12.693 7.712 2.566 1.682 5.07 3.458 7.556 5.256l2.949 2.197c-3.7-2.784 1.107.938 1.515 1.27 5.979 4.864 12.626 7.549 20.433 5.4 9.008-2.478 15.417-10.91 15.417-20.25V137.04c0-11.448-9.553-21-21-21s-20.999 9.554-20.999 21.002z"/><path d="M874.688 677.386a214.322 214.322 0 0 1-.714 16.77c-.225 2.755-.538 5.5-.881 8.242.784-6.28.171-1.428-.026-.147-.276 1.8-.598 3.594-.925 5.386-2.019 11.047-5.115 21.884-9.021 32.407-.556 1.497-3.986 9.768-1.363 3.624a193.27 193.27 0 0 1-3.299 7.239c-2.462 5.165-5.204 10.193-8.112 15.119-2.673 4.528-5.575 8.919-8.605 13.215-.908 1.287-6.256 8.306-2.209 3.107-1.878 2.412-3.837 4.76-5.825 7.083-7.102 8.288-14.973 15.9-23.352 22.886l-3.053 2.477c-3.663 2.932 3.844-2.91.102-.076-2.093 1.585-4.233 3.105-6.388 4.604-4.681 3.255-9.535 6.256-14.482 9.086-4.589 2.626-9.31 5.016-14.097 7.258l-3.626 1.637c-4.347 1.928 4.523-1.854.121-.046-2.879 1.183-5.797 2.266-8.729 3.308-10.61 3.77-21.577 6.493-32.677 8.36l-4.063.624c6.268-.918 1.409-.2.123-.05-2.751.325-5.512.56-8.274.767-6.185.463-12.391.563-18.589.444-6.042-.117-12.073-.58-18.077-1.254-5.193-.583 4.821.71-.338-.03-1.471-.21-2.937-.455-4.402-.7-3.399-.567-6.776-1.264-10.141-2.013-5.711-1.271-11.347-2.864-16.917-4.648-2.765-.885-5.498-1.863-8.219-2.872l-4.045-1.57c-2.126-.87-1.787-.717 1.016.462l-2.642-1.152c-10.923-4.811-21.329-10.75-31.178-17.48-2.352-1.606-4.65-3.291-6.929-5 4.601 3.45.633.483-.24-.212l-3.299-2.706c-4.732-3.941-9.232-8.154-13.571-12.523-4.006-4.034-7.789-8.284-11.428-12.651l-2.683-3.317c-3.101-3.891 2.805 3.716-.182-.266-1.995-2.66-3.893-5.391-5.748-8.148-3.191-4.742-6.12-9.656-8.88-14.66-1.658-3.005-3.201-6.071-4.701-9.157a196.966 196.966 0 0 1-2.346-5.07c-.971-2.232-1-2.276-.086-.132l-1.307-3.265c-5.463-13.837-9.114-28.348-11.268-43.054.75 5.12-.057-.918-.136-1.643-.197-1.82-.343-3.646-.489-5.472-.295-3.682-.433-7.374-.52-11.065-.15-6.374.09-12.755.565-19.111.206-2.76.5-5.51.823-8.258.576-4.892-.724 4.998-.012.136l.652-4.054c.976-5.8 2.276-11.54 3.775-17.225 1.369-5.19 3.009-10.306 4.807-15.362.893-2.513 1.863-4.996 2.859-7.47 1.778-4.414-1.943 4.48-.047.12.706-1.62 1.45-3.224 2.2-4.825 4.658-9.95 10.262-19.441 16.53-28.457a193.75 193.75 0 0 1 4.646-6.354c-3.974 5.248 1.438-1.7 2.447-2.912 3.635-4.358 7.5-8.52 11.498-12.545 3.691-3.716 7.567-7.245 11.544-10.652 1.99-1.705 4.031-3.35 6.089-4.973-4.739 3.74-1.067.84-.079.104a191.283 191.283 0 0 1 4.258-3.07c8.978-6.332 18.545-11.806 28.457-16.53 1.439-.686 9.635-4.228 3.476-1.647 2.457-1.03 4.946-1.982 7.444-2.91 5.449-2.02 11.009-3.738 16.617-5.261 5.236-1.42 10.544-2.564 15.88-3.54 1.623-.296 10.746-1.61 3.896-.705 3.198-.423 6.41-.731 9.624-.994 13.253-1.086 26.604-.676 39.796.917-5.379-.65.366.09 1.232.227 1.692.266 3.376.576 5.061.887 3.349.616 6.672 1.366 9.982 2.159 7.099 1.7 14.073 3.895 20.931 6.388 1.571.57 3.128 1.183 4.684 1.794 5.246 2.063-4.028-1.782 1.135.457 3.049 1.32 6.046 2.76 9.021 4.238 6.418 3.185 12.611 6.806 18.635 10.679 3.043 1.957 6.004 4.039 8.935 6.159.423.306 5.256 4.02 1.604 1.164a184.484 184.484 0 0 1 4.018 3.263c5.018 4.155 9.774 8.616 14.351 13.249 4.226 4.279 8.201 8.799 12.014 13.447.642.783 3.825 4.872.441.477.919 1.192 1.81 2.407 2.7 3.62 2.08 2.837 4.05 5.753 5.974 8.697 3.31 5.065 6.32 10.32 9.142 15.67 1.417 2.688 2.738 5.424 4.027 8.174l1.873 4.166c-2.37-5.384.377.988.791 2.04 4.724 11.999 8.089 24.507 10.331 37.197.233 1.324 1.4 9.848.628 3.762.334 2.624.581 5.258.807 7.894.462 5.33.636 10.689.658 16.044.047 11.447 9.518 21 21 21 11.412 0 21.047-9.552 21-21-.228-55.84-22.035-109.508-60.635-149.815-41.33-43.158-100.79-66.963-160.372-65.48-49.449 1.23-96.295 19.97-134.117 51.505-35.797 29.846-61.146 72.865-70.79 118.369-12.081 56.994-.69 118.02 32.265 166.22 29.343 42.917 73.515 74.418 123.856 87.645 49.857 13.099 102.824 7.043 149.137-15.03 41.769-19.905 76.816-55.054 97.53-96.314 15.121-30.121 23.006-63.395 23.126-97.098.041-11.448-9.583-21-21-21-11.479-.002-20.959 9.55-21 20.998z"/><path d="M778.132 599.746 672.304 705.574l-19.755 19.755h29.699l-57.754-57.754c-8.091-8.09-21.608-8.09-29.699 0s-8.09 21.608 0 29.699l57.754 57.754c8.091 8.09 21.608 8.09 29.699 0L788.076 649.2l19.755-19.755c8.09-8.091 8.09-21.608 0-29.7s-21.608-8.09-29.699 0z"/></svg>