<svg width="925" height="920" xmlns="http://www.w3.org/2000/svg" xml:space="preserve" version="1.1" fill="#000000">

 <g>
  <title>Layer 1</title>
  <g id="svg_1">
   <g id="svg_2">
    <g id="svg_3">
     <path id="svg_4" d="m892.13105,460.95181c-0.14,89.539 -27.991,176.882 -79.655,250.098c-49.711,70.446 -121.6,125.386 -202.431,155.252c-85.217,31.487 -179.362,35.05 -266.76,10.721c-84.211,-23.441 -159.549,-73.061 -215.641,-140.042c-56.307,-67.24 -90.889,-152.331 -98.129,-239.664c-7.452,-89.891 13.396,-180.404 59.527,-257.826c44.52,-74.719 111.581,-134.491 190.435,-171.189c81.364,-37.866 175.174,-48.597 263.171,-31.544c86.288,16.721 165.758,60.107 227.079,122.888c61.471,62.934 102.147,144.06 116.742,230.831c3.89,23.119 5.625,46.854 5.662,70.475c0.021,13.541 21.021,13.543 21,0c-0.143,-91.194 -27.793,-181.223 -79.514,-256.392c-50.725,-73.723 -122.666,-130.902 -205.55,-164.418c-85.761,-34.679 -182.1,-41.131 -272.054,-20.215c-86.894,20.204 -166.886,67.263 -227.635,132.458c-61.139,65.613 -102.01,149.286 -115.79,237.915c-14.293,91.927 -0.062,186.617 40.702,270.231c38.809,79.604 101.875,146.786 178.136,191.611c79.143,46.519 172.19,67.499 263.641,60.491c90.903,-6.966 177.627,-41.786 248.795,-98.584c69.509,-55.474 121.369,-131.897 148.319,-216.547c14.014,-44.015 20.877,-90.387 20.949,-136.551c0.023,-13.542 -20.977,-13.54 -20.999,0.001zm-261.845,-148.16l0,108.941l0,190.327l0,61.701l0,11.287c0,8.877 -7.001,14.716 -15.629,14.716l-137.393,0l-162.802,0l-10.641,0c-9.311,0 -14.446,-7.649 -14.446,-16.43l0,-44.86l0,-183.52l0,-137.964c0,-1.706 -0.226,-4.144 -0.049,-5.45c0.932,-6.869 5.457,-11.382 11.921,-12.977c2.008,-0.496 5.039,-0.2 7.462,-0.2l56.253,0l-10.5,-10.5l0,17.07c0,5.5 -1.653,15.568 1.651,20.469c5.686,8.434 14.791,6.892 23.557,6.892l84.646,0l77.685,0c8.863,0 20.464,1.209 22.82,-10.478c1.151,-5.712 0.375,-12.098 0.375,-17.875l0,-16.078l-10.5,10.5l42.274,0l18.363,0c8.275,0 14.73,6.186 14.953,14.429c0.364,13.515 21.365,13.55 21,0c-0.45,-16.685 -11.889,-31.541 -28.595,-34.728c-6.608,-1.26 -13.694,-0.701 -20.381,-0.701l-47.613,0c-5.724,0 -10.5,4.776 -10.5,10.5l0,15.083l0,11.021l0,3.663c0,2.786 -0.623,-0.098 0.623,-1.947l3.767,-3.767c1.668,-1.124 4.756,-0.623 2.334,-0.623l-3.224,0l-11.607,0l-38.847,0l-94.723,0l-24.86,0l-7.184,0l-2.04,0c-2.057,0 1.092,-0.419 2.638,0.623l3.767,3.767c1.125,1.668 0.623,4.7 0.623,2.358l0,-3.339l0,-10.762l0,-16.078c0,-5.724 -4.776,-10.5 -10.5,-10.5l-34.558,0l-21.108,0c-5.909,0 -11.724,0.037 -17.387,2.09c-14.94,5.415 -23.535,19.472 -23.535,35.024l0,15.264l0,161.827l0,169.505c0,14.027 -2.186,30.832 5.514,43.232c7.199,11.594 19.805,16.459 32.898,16.459l19.489,0l175.506,0l82.762,0l24.253,0c6.446,0 12.736,0.164 18.953,-2.09c14.94,-5.415 23.535,-19.473 23.535,-35.024l0,-15.264l0,-67.157l0,-191.259l0,-97.178c0,-13.541 -21,-13.541 -21,0.001z"/>
     <path id="svg_5" d="m551.92705,244.12481l-58.859,0l10.5,10.5c0,-11.281 0.016,-21.584 -5.004,-32.079c-7.318,-15.3 -24.969,-24.348 -41.529,-23.315c-15.308,0.955 -29.274,10.222 -36.214,23.875c-5.091,10.017 -4.729,20.646 -4.729,31.519l10.5,-10.5l-34.858,0l-20.09,0l-3.823,0c-7.216,0 -13.358,6.049 -13.358,13.292l0,35.252l0,20.931c0,7.086 0.566,16.32 9.4,18.102c6.012,1.213 12.455,0.593 18.545,0.593l38.176,0l94.941,0l29.594,0l6.354,0c7.9,0 13.722,-6.226 13.722,-14.006l0,-37.469l0,-19.131c0,-7.479 -1.677,-15.412 -10.479,-17.188c-5.604,-1.131 -11.32,1.533 -12.916,7.333c-1.437,5.224 1.721,11.784 7.334,12.917l-0.55,-0.248l-3.767,-3.767c-0.997,-1.48 -0.623,-4.624 -0.623,-2.825l0,1.868l0,7.061l0,20.874l0,21.117l0,7.381l0,2.077c0,2.076 -0.434,-1.036 0.623,-2.604l3.767,-3.767c1.668,-1.124 4.756,-0.623 2.334,-0.623l-3.224,0l-11.607,0l-38.847,0l-94.723,0l-24.86,0l-7.184,0l-2.04,0c-2.057,0 1.092,-0.419 2.638,0.623l3.767,3.767c0.997,1.478 0.623,4.625 0.623,2.826l0,-1.868l0,-7.061l0,-20.874l0,-21.117l0,-7.381l0,-2.077c0,-2.076 0.434,1.037 -0.623,2.604l-3.767,3.767c-1.486,1.002 -4.63,0.623 -2.804,0.623l1.938,0l6.536,0l19.922,0l29.925,0c5.724,0 10.5,-4.776 10.5,-10.5c0,-6.177 -0.607,-12.628 0.997,-18.463c2.432,-8.842 10.21,-14.306 19.006,-15.965c10.257,-1.934 19.74,5.431 23.99,14.318c2.729,5.707 1.482,13.97 1.482,20.11c0,5.724 4.776,10.5 10.5,10.5l58.859,0c13.547,-0.002 13.547,-21.002 0.005,-21.002zm-92.27,4.381l0.452,0.024l-2.791,-0.375c0.45,0.073 0.838,0.179 1.263,0.346l-2.508,-1.059c0.261,0.119 0.507,0.263 0.738,0.433l-2.125,-1.642c0.342,0.279 0.621,0.558 0.9,0.9l-1.642,-2.125a4.26,4.26 0 0 1 0.433,0.738l-1.059,-2.508c0.167,0.424 0.272,0.813 0.346,1.263l-0.375,-2.792a4.14,4.14 0 0 1 0,0.904l0.375,-2.791a5.87,5.87 0 0 1 -0.346,1.262l1.059,-2.508c-0.119,0.261 -0.263,0.506 -0.433,0.737l1.642,-2.125c-0.279,0.342 -0.558,0.621 -0.9,0.9l2.125,-1.642a4.19,4.19 0 0 1 -0.738,0.432l2.508,-1.059c-0.424,0.167 -0.813,0.272 -1.263,0.346l2.791,-0.375a4.14,4.14 0 0 1 -0.904,0l2.791,0.375c-0.449,-0.073 -0.838,-0.179 -1.262,-0.346l2.508,1.059c-0.261,-0.119 -0.506,-0.263 -0.737,-0.432l2.125,1.642c-0.342,-0.279 -0.621,-0.558 -0.899,-0.9l1.642,2.125a4.22,4.22 0 0 1 -0.432,-0.737l1.058,2.508c-0.166,-0.424 -0.271,-0.813 -0.346,-1.262l0.375,2.791a4.27,4.27 0 0 1 0,-0.904l-0.375,2.792c0.074,-0.45 0.18,-0.838 0.346,-1.263l-1.058,2.508a4.13,4.13 0 0 1 0.432,-0.738l-1.642,2.125a6.07,6.07 0 0 1 0.899,-0.9l-2.125,1.642a4.29,4.29 0 0 1 0.737,-0.433l-2.508,1.059c0.424,-0.167 0.813,-0.272 1.262,-0.346l-2.791,0.375l0.452,-0.024c5.713,-0.309 10.5,-4.543 10.5,-10.5c0,-5.49 -4.78,-10.809 -10.5,-10.5c-8.277,0.447 -14.207,6.377 -14.654,14.655c-0.211,3.912 1.789,7.313 4.146,10.208c2.481,3.045 6.775,4.246 10.507,4.447c3.912,0.211 7.313,-1.789 10.208,-4.146c3.045,-2.481 4.246,-6.776 4.447,-10.508c0.211,-3.912 -1.789,-7.314 -4.146,-10.207c-2.482,-3.045 -6.776,-4.246 -10.509,-4.448c-5.72,-0.309 -10.5,5.01 -10.5,10.5c0.001,5.956 4.787,10.19 10.501,10.499z"/>
     <path id="svg_6" d="m453.48505,242.16081l-0.024,0.452l0.375,-2.791a5.87,5.87 0 0 1 -0.346,1.262l1.059,-2.508c-0.119,0.261 -0.263,0.506 -0.433,0.737l1.642,-2.125c-0.279,0.342 -0.558,0.621 -0.9,0.9l2.125,-1.642a4.22,4.22 0 0 1 -0.737,0.432l2.508,-1.059c-0.424,0.167 -0.813,0.272 -1.262,0.346l2.792,-0.375a4.14,4.14 0 0 1 -0.904,0l2.791,0.375a5.91,5.91 0 0 1 -1.263,-0.346l2.509,1.059a4.19,4.19 0 0 1 -0.738,-0.432l2.125,1.642a6.07,6.07 0 0 1 -0.899,-0.9l1.642,2.125a4.22,4.22 0 0 1 -0.432,-0.737l1.059,2.508c-0.167,-0.424 -0.272,-0.813 -0.347,-1.262l0.376,2.791a4.14,4.14 0 0 1 0,-0.904l-0.376,2.792c0.074,-0.45 0.18,-0.838 0.347,-1.263l-1.059,2.508a4.13,4.13 0 0 1 0.432,-0.738l-1.642,2.125a6.12,6.12 0 0 1 0.899,-0.9l-2.125,1.642c0.231,-0.169 0.478,-0.313 0.738,-0.433l-2.509,1.059c0.425,-0.167 0.813,-0.272 1.263,-0.346l-2.791,0.375a4.14,4.14 0 0 1 0.904,0l-2.792,-0.375a5.87,5.87 0 0 1 1.262,0.346l-2.508,-1.059c0.261,0.119 0.506,0.263 0.737,0.433l-2.125,-1.642c0.342,0.279 0.621,0.558 0.9,0.9l-1.642,-2.125a4.26,4.26 0 0 1 0.433,0.738l-1.059,-2.508c0.167,0.424 0.272,0.813 0.346,1.263l-0.375,-2.792l0.024,0.452c0.309,5.713 4.543,10.5 10.5,10.5c5.49,0 10.809,-4.78 10.5,-10.5c-0.447,-8.277 -6.377,-14.208 -14.654,-14.655c-3.912,-0.211 -7.314,1.789 -10.208,4.147c-3.045,2.481 -4.246,6.775 -4.447,10.508c-0.211,3.912 1.789,7.314 4.146,10.208c2.482,3.045 6.776,4.246 10.508,4.447c3.912,0.211 7.313,-1.789 10.207,-4.146c3.045,-2.482 4.246,-6.776 4.447,-10.508c0.309,-5.72 -5.01,-10.5 -10.5,-10.5c-5.956,-0.001 -10.191,4.785 -10.499,10.499z"/>
     <path id="svg_7" d="m450.88805,242.16081l-0.009,0.169l0.375,-2.791c-0.027,0.168 -0.067,0.314 -0.129,0.473l1.059,-2.508c-0.044,0.098 -0.099,0.19 -0.162,0.277l1.642,-2.125c-0.104,0.128 -0.209,0.233 -0.337,0.337l2.125,-1.642a1.63,1.63 0 0 1 -0.277,0.162l2.508,-1.059c-0.159,0.063 -0.305,0.102 -0.473,0.129l2.791,-0.375a1.6,1.6 0 0 1 -0.339,0l2.792,0.375c-0.169,-0.027 -0.314,-0.067 -0.474,-0.129l2.508,1.059c-0.098,-0.045 -0.19,-0.099 -0.276,-0.162l2.125,1.642c-0.129,-0.104 -0.233,-0.209 -0.338,-0.337l1.643,2.125c-0.064,-0.086 -0.118,-0.179 -0.162,-0.277l1.059,2.508a2.17,2.17 0 0 1 -0.13,-0.473l0.375,2.791a1.48,1.48 0 0 1 0,-0.339l-0.375,2.791a2.17,2.17 0 0 1 0.13,-0.473l-1.059,2.508a1.51,1.51 0 0 1 0.162,-0.277l-1.643,2.125c0.104,-0.128 0.209,-0.232 0.338,-0.337l-2.125,1.642a1.56,1.56 0 0 1 0.276,-0.162l-2.508,1.059a2.16,2.16 0 0 1 0.474,-0.129l-2.792,0.375a1.6,1.6 0 0 1 0.339,0l-2.791,-0.375c0.168,0.027 0.314,0.067 0.473,0.129l-2.508,-1.059c0.098,0.044 0.19,0.099 0.277,0.162l-2.125,-1.642c0.128,0.104 0.232,0.209 0.337,0.337l-1.642,-2.125c0.063,0.087 0.118,0.179 0.162,0.277l-1.059,-2.508c0.063,0.159 0.102,0.305 0.129,0.473l-0.375,-2.791l0.009,0.17c0.153,2.839 1.029,5.378 3.075,7.425c1.96,1.96 4.651,3.075 7.425,3.075s5.465,-1.115 7.425,-3.075c1.873,-1.874 3.221,-4.725 3.075,-7.425c-0.061,-1.128 -0.093,-2.363 -0.514,-3.434c-1.065,-2.712 -1.104,-2.75 -2.963,-5.034c-0.689,-0.846 -1.666,-1.513 -2.639,-2.018c-2.158,-1.12 -3.49,-1.44 -5.942,-1.572c-1.104,-0.06 -2.372,0.097 -3.435,0.514c-2.712,1.065 -2.75,1.104 -5.034,2.963c-0.846,0.689 -1.513,1.666 -2.018,2.638c-1.12,2.158 -1.44,3.491 -1.572,5.942c-0.06,1.104 0.097,2.372 0.514,3.434c1.065,2.712 1.103,2.75 2.963,5.034c0.689,0.846 1.666,1.513 2.638,2.018c2.158,1.119 3.491,1.44 5.943,1.572c1.104,0.06 2.371,-0.096 3.435,-0.514c2.711,-1.065 2.751,-1.103 5.033,-2.963c0.846,-0.689 1.514,-1.667 2.018,-2.639c1.119,-2.159 1.439,-3.49 1.572,-5.942c0.146,-2.7 -1.202,-5.551 -3.075,-7.425c-1.96,-1.96 -4.651,-3.075 -7.425,-3.075s-5.464,1.115 -7.425,3.075c-2.045,2.048 -2.921,4.587 -3.074,7.426zm-110.015,180.38l140.345,0l97.569,0c13.542,0 13.542,-21 0,-21l-140.346,0l-97.569,0c-13.541,0 -13.541,21 0.001,21l0,0zm0,93.944l140.345,0l97.569,0c13.542,0 13.542,-21 0,-21l-140.346,0l-97.569,0c-13.541,0 -13.541,21 0.001,21l0,0zm0,93.944l50.951,0c13.542,0 13.542,-21 0,-21l-50.951,0c-13.542,0 -13.542,21 0,21l0,0zm230.49,-50.44l-86.328,86.33l14.85,0l-39.702,-39.701c-9.584,-9.583 -24.433,5.266 -14.85,14.85l39.702,39.701c4.046,4.045 10.804,4.045 14.85,0l86.328,-86.33c9.582,-9.584 -5.266,-24.434 -14.85,-14.85l0,0z"/>
    </g>
   </g>
  </g>
 </g>
</svg>

