<svg xmlns="http://www.w3.org/2000/svg" data-name="Layer 1" viewBox="0 0 80 80" x="0px" y="0px"><title>package-order-arrow-confirm</title><path d="M7.153,24.5V50a2,2,0,1,0,4,0V25.655L38,41.154v31l-3-1.733a2,2,0,1,0-2,3.465L37,76.2a6,6,0,0,0,2.918.8c.027,0,.053.008.081.008s.053-.007.081-.008A6,6,0,0,0,43,76.2L69.848,60.7a6.017,6.017,0,0,0,3-5.2v-31a6.018,6.018,0,0,0-3-5.2L43,3.8a6.014,6.014,0,0,0-6,0L10.152,19.3A6.019,6.019,0,0,0,7.153,24.5Zm17.358-8.867,26.846,15.5L40,37.69l-26.848-15.5Zm43.336,41.6L42,72.155v-31l14.342-8.279h0l12.5-7.218V55.5A2.005,2.005,0,0,1,67.847,57.231ZM39,7.268a2,2,0,0,1,2,0L66.848,22.192l-11.49,6.633-26.847-15.5Z"/><path d="M62.155,36.838a3.008,3.008,0,0,0-3,0l-9.311,5.374a3.01,3.01,0,0,0-1.5,2.6v5.754a3,3,0,0,0,4.5,2.6l9.311-5.376a3.01,3.01,0,0,0,1.5-2.6V39.436A3.007,3.007,0,0,0,62.155,36.838Zm-2.5,7.772-7.311,4.221V45.387l7.311-4.219Z"/><path d="M19.93,76A13,13,0,1,0,7,63,13.05,13.05,0,0,0,19.93,76ZM20,54a9,9,0,1,1-9,9A9.01,9.01,0,0,1,20,54Z"/><path d="M20.172,65l-1.586,1.586a2,2,0,1,0,2.828,2.828l4.293-4.293a2.971,2.971,0,0,0,.839-1.716,2.011,2.011,0,0,0,0-.809,2.971,2.971,0,0,0-.839-1.716l-4.293-4.293a2,2,0,0,0-2.828,2.828L20.172,61H15a2,2,0,0,0,0,4Z"/></svg>