<svg width="920" height="920" xmlns="http://www.w3.org/2000/svg" xml:space="preserve" version="1.1" fill="#000000">

 <g>
  <title>Layer 1</title>
  <g id="svg_1">
   <g id="svg_2">
    <g id="svg_3">
     <path id="svg_4" d="m501.404,46.89877l0,130.142l0,147.454l0,1.671l31.599,-18.133l-63.184,-35.102l-30.293,-16.83c-7.569,-4.205 -15.684,-5.25 -23.673,-0.812l-8.977,4.987l-85.963,47.756l31.599,18.133l0,-130.142l0,-147.454l0,-1.671l-21,21l148.902,0l41.989,0c11.447,0 21,-9.552 21,-21s-9.553,-21 -21,-21l-148.902,0l-41.989,0c-11.447,0 -21,9.552 -21,21l0,130.142l0,147.454l0,1.671c0,16.182 17.763,25.82 31.599,18.133l95.446,-53.025l-21.198,0l95.446,53.025c13.836,7.687 31.599,-1.951 31.599,-18.133l0,-130.142l0,-147.454l0,-1.671c0,-11.448 -9.553,-21 -21,-21s-21,9.553 -21,21.001zm-348.41,503.529l93.678,0c11.448,0 21,-9.553 21,-21s-9.552,-21 -21,-21l-93.678,0c-11.447,0 -21,9.553 -21,21s9.553,21 21,21l0,0zm0,106.052l132.217,0l138.036,0l0.175,0c11.447,0 21,-9.553 21,-21s-9.553,-21 -21,-21l-132.217,0l-138.036,0l-0.175,0c-11.447,0 -21,9.553 -21,21s9.553,21 21,21l0,0z"/>
     <path id="svg_5" d="m803.647,137.04177l0,105.301l0,191.838l0,92.953l35.85,-14.85c-46.046,-37.454 -105.269,-56.329 -164.562,-48.499c-48.501,6.405 -93.396,28.114 -127.756,63.171c-27.809,28.373 -47.615,64.879 -56.125,103.68c-10.988,50.101 -3.583,102.609 20.146,148.004l18.133,-31.599l-101.861,0l-192.795,0l-114.55,0l-0.69,0c-1.412,0 -2.821,-0.042 -4.232,-0.097c-1.387,-0.053 -2.771,-0.169 -4.154,-0.285a92.76,92.76 0 0 1 -2.739,-0.295c3.315,0.463 3.822,0.516 1.521,0.158c-5.319,-0.859 -10.526,-2.316 -15.599,-4.115c-1.182,-0.419 -5.566,-2.23 0.079,0.157c-1.218,-0.515 -2.413,-1.084 -3.606,-1.652c-2.773,-1.32 -5.446,-2.843 -8.068,-4.439c-2.239,-1.362 -4.386,-2.87 -6.497,-4.423c5.266,3.872 -1.58,-1.452 -2.793,-2.549c-1.938,-1.752 -3.76,-3.627 -5.539,-5.539c-0.89,-0.956 -1.738,-1.95 -2.585,-2.944l-1.653,-2.024c1.938,2.535 2.242,2.909 0.914,1.122c-3.115,-4.236 -5.76,-8.802 -8.088,-13.511c-0.586,-1.186 -1.12,-2.396 -1.653,-3.606c2.46,5.584 0.6,1.272 0.157,0.079c-1.089,-2.932 -1.957,-5.939 -2.732,-8.967c-0.674,-2.63 -1.168,-5.303 -1.601,-7.981c1.093,6.769 -0.113,-2.299 -0.206,-4.026c-0.079,-1.48 -0.096,-2.966 -0.096,-4.448l0,-2.684l0,-13.611l0,-136.575l0,-195.249l0,-156.941l0,-33.799l0,-1.745a104.72,104.72 0 0 1 0.171,-5.604c0.074,-1.382 0.211,-2.76 0.348,-4.137c0.487,-4.892 -0.78,4.981 0,0.153c0.93,-5.758 2.55,-11.387 4.579,-16.848c1.654,-4.453 -1.997,4.451 -0.086,0.115c0.533,-1.209 1.119,-2.394 1.704,-3.578c1.167,-2.359 2.487,-4.639 3.855,-6.885c1.363,-2.239 2.871,-4.386 4.423,-6.497c-3.556,4.836 -0.843,1.126 -0.036,0.152c1.111,-1.341 2.289,-2.626 3.475,-3.901c1.78,-1.912 3.682,-3.707 5.619,-5.458c0.969,-0.876 1.976,-1.71 2.982,-2.543c3.603,-2.984 -3.875,2.867 -0.104,0.094c4.592,-3.375 9.563,-6.207 14.703,-8.655c1.147,-0.546 5.502,-2.276 -0.152,0.018c1.233,-0.5 2.488,-0.945 3.743,-1.39c2.528,-0.896 5.113,-1.621 7.709,-2.287c2.63,-0.674 5.302,-1.168 7.98,-1.601c-6.22,1.005 -1.455,0.213 -0.129,0.081c1.845,-0.184 3.698,-0.269 5.55,-0.339c1.31,-0.05 2.623,-0.043 3.934,-0.043l9.807,0l45.792,0l163.44,0l196.67,0l154.805,0l38.235,0l5.22,0c2.793,0 5.576,0.148 8.358,0.382c1.307,0.11 6.137,0.833 -0.128,-0.081c1.348,0.197 2.686,0.455 4.022,0.712c2.648,0.511 5.26,1.2 7.85,1.948c1.285,0.371 2.553,0.799 3.819,1.227s7.128,2.805 1.177,0.288c4.854,2.053 9.471,4.637 13.886,7.504c1.099,0.714 2.166,1.475 3.231,2.235c3.812,2.718 -3.748,-3.025 -0.104,-0.094c2.376,1.911 4.61,3.99 6.78,6.128c1.861,1.834 3.601,3.787 5.295,5.774c0.81,0.949 3.606,4.654 -0.035,-0.152c0.79,1.044 1.535,2.121 2.28,3.198c3.246,4.695 5.936,9.756 8.234,14.974c-2.676,-6.074 0.619,2.145 1.124,3.715c0.824,2.563 1.473,5.179 2.062,7.805c0.298,1.326 0.535,2.664 0.771,4.001c0.854,4.815 -0.562,-5.037 0,-0.153c0.374,3.231 0.497,6.484 0.521,9.732c0.088,11.446 9.486,21 21,21c11.381,0 21.088,-9.552 21,-21c-0.399,-52.283 -38.31,-99.896 -90.4,-109.124c-12.241,-2.168 -24.149,-2.02 -36.45,-2.02l-126.579,0l-191.723,0l-181.773,0l-96.728,0c-34.104,0 -67.655,14.139 -88.927,41.381c-15.684,20.088 -24.802,44.101 -24.802,69.785l0,6.59l0,118.188l0,192.378l0,169.588l0,45.94c0,24.193 4.266,47.624 17.718,68.335c21.241,32.702 57.406,50.959 96.073,50.959l43.893,0l179.883,0l161.696,0l21.806,0c16.488,0 25.408,-17.682 18.133,-31.599c-1.724,-3.297 -3.362,-6.629 -4.925,-10.005c-0.219,-0.475 -2.652,-6.152 -0.852,-1.831c-0.677,-1.623 -1.307,-3.267 -1.938,-4.908c-2.757,-7.174 -4.983,-14.541 -6.866,-21.988c-0.878,-3.478 -1.611,-6.989 -2.296,-10.509c-0.344,-1.771 -0.639,-3.552 -0.933,-5.332c-0.12,-0.725 -0.92,-6.725 -0.268,-1.602c-1.009,-7.918 -1.417,-15.903 -1.454,-23.882c-0.026,-5.598 0.257,-11.194 0.714,-16.771c0.226,-2.754 0.538,-5.499 0.881,-8.241c-0.784,6.28 -0.171,1.428 0.026,0.147c0.276,-1.8 0.598,-3.594 0.925,-5.386c2.019,-11.047 5.115,-21.884 9.021,-32.407c0.556,-1.497 3.986,-9.768 1.363,-3.624c1.041,-2.439 2.158,-4.846 3.299,-7.239c2.462,-5.165 5.204,-10.192 8.111,-15.118c2.674,-4.529 5.576,-8.92 8.606,-13.216c0.907,-1.286 6.256,-8.306 2.209,-3.106c1.878,-2.413 3.836,-4.762 5.825,-7.083c7.101,-8.289 14.972,-15.9 23.351,-22.887l3.053,-2.477c3.664,-2.932 -3.843,2.909 -0.101,0.076c2.092,-1.584 4.232,-3.104 6.387,-4.603c4.682,-3.255 9.535,-6.256 14.482,-9.087c3.439,-1.968 6.957,-3.794 10.51,-5.547c1.584,-0.782 3.187,-1.525 4.791,-2.264l2.422,-1.084c4.347,-1.927 -4.523,1.855 -0.121,0.047c7.433,-3.054 15.08,-5.563 22.832,-7.666c3.921,-1.063 7.885,-1.962 11.864,-2.776c1.781,-0.364 3.57,-0.685 5.36,-0.999c1.467,-0.257 9.352,-1.368 2.552,-0.47c8.877,-1.173 17.833,-1.627 26.782,-1.587c5.258,0.023 10.511,0.326 15.748,0.771c2.302,0.195 4.597,0.462 6.89,0.738c-2.732,-0.377 -2.888,-0.39 -0.464,-0.039c1.696,0.251 3.386,0.547 5.075,0.842c10.558,1.85 20.922,4.714 31.021,8.285c2.103,0.743 4.182,1.551 6.257,2.366c2.195,0.898 2.064,0.829 -0.393,-0.206c1.532,0.649 3.048,1.338 4.563,2.025c4.529,2.058 8.95,4.347 13.307,6.746c4.338,2.39 8.551,4.999 12.693,7.712c2.566,1.682 5.07,3.458 7.556,5.256l2.949,2.197c-3.7,-2.784 1.107,0.938 1.515,1.271c5.979,4.863 12.626,7.548 20.433,5.4c9.008,-2.479 15.417,-10.91 15.417,-20.25l0,-105.301l0,-191.838l0,-92.953c0,-11.448 -9.553,-21 -21,-21s-20.999,9.554 -20.999,21.002z"/>
     <path id="svg_6" d="m874.688,677.38577c-0.02,5.602 -0.256,11.188 -0.714,16.771c-0.225,2.754 -0.538,5.499 -0.881,8.241c0.784,-6.28 0.171,-1.428 -0.026,-0.147c-0.276,1.8 -0.598,3.594 -0.925,5.386c-2.019,11.047 -5.115,21.884 -9.021,32.407c-0.556,1.497 -3.986,9.768 -1.363,3.624c-1.042,2.439 -2.158,4.846 -3.299,7.239c-2.462,5.165 -5.204,10.193 -8.112,15.119c-2.673,4.528 -5.575,8.919 -8.605,13.215c-0.908,1.287 -6.256,8.306 -2.209,3.107c-1.878,2.412 -3.837,4.761 -5.825,7.083c-7.102,8.288 -14.973,15.9 -23.352,22.886l-3.053,2.477c-3.663,2.932 3.844,-2.909 0.102,-0.076c-2.093,1.585 -4.233,3.105 -6.388,4.604c-4.681,3.255 -9.535,6.256 -14.482,9.086c-4.589,2.626 -9.31,5.016 -14.097,7.258l-3.626,1.637c-4.347,1.928 4.523,-1.854 0.121,-0.046c-2.879,1.183 -5.797,2.266 -8.729,3.308c-10.61,3.771 -21.577,6.493 -32.677,8.36l-4.063,0.624c6.268,-0.918 1.409,-0.2 0.123,-0.049c-2.751,0.324 -5.512,0.56 -8.274,0.766c-6.185,0.463 -12.391,0.563 -18.589,0.444c-6.042,-0.117 -12.073,-0.58 -18.077,-1.254c-5.193,-0.583 4.821,0.71 -0.338,-0.029c-1.471,-0.211 -2.937,-0.456 -4.402,-0.7c-3.399,-0.568 -6.776,-1.265 -10.141,-2.014c-5.711,-1.271 -11.347,-2.864 -16.917,-4.648c-2.765,-0.885 -5.498,-1.863 -8.219,-2.872l-4.045,-1.569c-2.126,-0.871 -1.787,-0.718 1.016,0.461l-2.642,-1.152c-10.923,-4.811 -21.329,-10.75 -31.178,-17.48c-2.352,-1.606 -4.65,-3.291 -6.929,-4.999c4.601,3.449 0.633,0.482 -0.24,-0.213l-3.299,-2.706c-4.732,-3.941 -9.232,-8.154 -13.571,-12.523c-4.006,-4.034 -7.789,-8.284 -11.428,-12.651l-2.683,-3.317c-3.101,-3.891 2.805,3.716 -0.182,-0.266c-1.995,-2.659 -3.893,-5.391 -5.748,-8.148c-3.191,-4.742 -6.12,-9.656 -8.88,-14.66c-1.658,-3.005 -3.201,-6.071 -4.701,-9.157c-0.814,-1.675 -1.58,-3.372 -2.346,-5.069c-0.971,-2.233 -1,-2.277 -0.086,-0.133l-1.307,-3.265c-5.463,-13.837 -9.114,-28.348 -11.268,-43.054c0.75,5.12 -0.057,-0.918 -0.136,-1.643c-0.197,-1.82 -0.343,-3.646 -0.489,-5.472c-0.295,-3.682 -0.433,-7.374 -0.52,-11.065c-0.15,-6.374 0.09,-12.755 0.565,-19.111c0.206,-2.759 0.5,-5.51 0.823,-8.258c0.576,-4.892 -0.724,4.998 -0.012,0.136l0.652,-4.054c0.976,-5.799 2.276,-11.54 3.775,-17.225c1.369,-5.19 3.009,-10.306 4.807,-15.362c0.893,-2.513 1.863,-4.996 2.859,-7.47c1.778,-4.414 -1.943,4.48 -0.047,0.121c0.706,-1.621 1.45,-3.225 2.2,-4.826c4.658,-9.949 10.262,-19.441 16.53,-28.457c1.498,-2.154 3.062,-4.263 4.646,-6.354c-3.974,5.248 1.438,-1.7 2.447,-2.912c3.635,-4.358 7.5,-8.52 11.498,-12.545c3.691,-3.716 7.567,-7.245 11.544,-10.652c1.99,-1.705 4.031,-3.35 6.089,-4.973c-4.739,3.74 -1.067,0.841 -0.079,0.104c1.402,-1.047 2.828,-2.061 4.258,-3.069c8.978,-6.333 18.545,-11.807 28.457,-16.53c1.439,-0.687 9.635,-4.229 3.476,-1.648c2.457,-1.029 4.946,-1.982 7.444,-2.909c5.449,-2.021 11.009,-3.739 16.617,-5.262c5.236,-1.42 10.544,-2.564 15.88,-3.539c1.623,-0.297 10.746,-1.611 3.896,-0.706c3.198,-0.423 6.41,-0.731 9.624,-0.994c13.253,-1.086 26.604,-0.676 39.796,0.917c-5.379,-0.649 0.366,0.091 1.232,0.227c1.692,0.266 3.376,0.576 5.061,0.887c3.349,0.616 6.672,1.366 9.982,2.159c7.099,1.7 14.073,3.895 20.931,6.388c1.571,0.57 3.128,1.183 4.684,1.794c5.246,2.063 -4.028,-1.782 1.135,0.457c3.049,1.321 6.046,2.761 9.021,4.238c6.418,3.185 12.611,6.806 18.635,10.679c3.043,1.957 6.004,4.039 8.935,6.159c0.423,0.306 5.256,4.02 1.604,1.164c1.359,1.063 2.689,2.162 4.018,3.263c5.018,4.155 9.774,8.616 14.351,13.249c4.226,4.279 8.201,8.799 12.014,13.447c0.642,0.783 3.825,4.872 0.441,0.477c0.919,1.192 1.81,2.407 2.7,3.621c2.08,2.836 4.05,5.752 5.974,8.696c3.31,5.065 6.32,10.32 9.142,15.67c1.417,2.688 2.738,5.424 4.027,8.174l1.873,4.166c-2.37,-5.384 0.377,0.988 0.791,2.04c4.724,11.999 8.089,24.507 10.331,37.197c0.233,1.324 1.4,9.848 0.628,3.762c0.334,2.624 0.581,5.258 0.807,7.894c0.462,5.331 0.636,10.689 0.658,16.044c0.047,11.447 9.518,21 21,21c11.412,0 21.047,-9.552 21,-21c-0.228,-55.839 -22.035,-109.508 -60.635,-149.815c-41.33,-43.158 -100.79,-66.963 -160.372,-65.479c-49.449,1.23 -96.295,19.969 -134.117,51.504c-35.797,29.846 -61.146,72.865 -70.79,118.369c-12.081,56.994 -0.69,118.021 32.265,166.22c29.343,42.917 73.515,74.418 123.856,87.645c49.857,13.099 102.824,7.043 149.137,-15.029c41.769,-19.906 76.816,-55.055 97.53,-96.315c15.121,-30.121 23.006,-63.395 23.126,-97.098c0.041,-11.448 -9.583,-21 -21,-21c-11.479,-0.002 -20.959,9.551 -21,20.998z"/>
     <path id="svg_7" d="m778.132,599.74577l-105.828,105.828l-19.755,19.755l29.699,0l-57.754,-57.754c-8.091,-8.09 -21.608,-8.09 -29.699,0s-8.09,21.608 0,29.699l57.754,57.754c8.091,8.09 21.608,8.09 29.699,0l105.828,-105.828l19.755,-19.755c8.09,-8.091 8.09,-21.608 0,-29.699s-21.608,-8.09 -29.699,0l0,0z"/>
    </g>
   </g>
  </g>
 </g>
</svg>