<svg xmlns="http://www.w3.org/2000/svg" viewBox="-62.915 -62.962 900 800" xmlns:v="https://vecta.io/nano"><style><![CDATA[.B{font-family:Helvetica Neue, Helvetica, Arial-Unicode, Arial, Sans-serif}]]></style><path d="M388.286 317.442c-.043 12.094-1.031 22.365-2.8 32.003-2.021 11.012-5.122 21.812-9.031 32.297l-1.444 3.714-.629 1.55c-1.042 2.43-2.16 4.826-3.302 7.211-2.464 5.145-5.208 10.151-8.119 15.055-2.676 4.509-5.58 8.879-8.613 13.155-3.641 5.132-4.533 6.191-9.136 11.531-28.644 33.229-65.458 53.489-109.252 60.568-.203.033-4.66.671-1.697.277-1.362.181-2.729.332-4.095.484-2.749.305-5.507.521-8.267.709-6.652.452-13.326.483-19.988.264-14.555-.48-28.358-2.896-42.503-6.912-24.64-6.994-48.555-20.395-66.971-36.325-40.814-35.304-63.707-87.904-61.949-142.593.178-5.538.65-11.063 1.301-16.563.53-4.484-.416 2.746.24-1.708l.653-4.041c.527-3.122 1.165-6.225 1.846-9.316 2.399-10.889 5.862-21.528 10.114-31.829-1.103 2.67.613-1.335.694-1.516l1.663-3.599c1.123-2.387 2.319-4.738 3.539-7.076 2.634-5.048 5.542-9.948 8.612-14.742 2.824-4.41 5.871-8.674 9.042-12.839-1.727 2.268.926-1.121 1.048-1.272l2.498-3.02c1.958-2.334 3.994-4.602 6.06-6.841 3.541-3.838 7.273-7.496 11.11-11.036 1.92-1.771 3.893-3.483 5.882-5.175l3.019-2.498 2.042-1.632a132.38 132.38 0 0 1 .271-.208c8.7-6.625 18.019-12.415 27.708-17.471 10.301-5.375 16.69-7.928 28.554-11.613 5.141-1.597 10.363-2.921 15.619-4.079 2.652-.584 5.322-1.083 7.996-1.555l4.041-.653c1.689-.24 1.805-.263.347-.069l2.727-.333c50.978-6.025 101.912 9.24 140.647 43.481 38.38 33.929 60.271 82.1 60.523 134.215.037 7.631 6.34 14 14 14 7.604 0 14.037-6.368 14-14-.275-56.941-23.818-111.785-65.287-150.875-41.839-39.44-99.724-59.785-157.016-55.484-46.96 3.525-91.259 23.144-125.832 55.034-33.484 30.886-56.176 73.612-63.121 118.597-8.973 58.124 6.854 116.33 43.125 162.453 35.395 45.009 89.731 72.129 146.418 76.681 47.476 3.812 96.342-10.2 134.933-37.97 37.672-27.108 65.444-66.083 78.595-110.619 5.512-18.667 8.116-38.374 8.185-57.816.027-7.632-6.389-14-14-14-7.653-.001-13.973 6.368-14 13.999zm480.299 228.634v67.367 44.839 13.726 3.177.597l-.026 1.425c-.155 1.711-.119 1.825.108.345a35.07 35.07 0 0 1-.511 2.63c-.368 1.723-.963 3.388-1.585 5.031.973-2.568-1.256 1.954-1.549 2.436l-1.464 2.129c.855-1.149.762-1.104-.28.138a35.1 35.1 0 0 1-1.819 1.821c-.22.213-3.487 2.691-1.182 1.038-1.405 1.008-2.933 1.829-4.467 2.618l-.265.116a34.45 34.45 0 0 1-2.515.796c-.592.175-5.66.921-2.889.652-1.06.103-2.128.106-3.191.106h-24.239l14 14c-1.096-39.951-33.411-72.05-73.46-72.516s-72.384 33.266-73.459 72.516l14-14h-59.961l14 14v-120.37-175.391-23.164l-14 14h139.937 1.307c1.449 0 2.891.067 4.337.152.14.008 4.736.597 1.908.162 3.192.491 6.314 1.352 9.378 2.358.143.046 4.268 1.695 1.709.581 1.235.539 2.433 1.162 3.627 1.784 2.379 1.239 4.621 2.72 6.804 4.271-2.228-1.583 1.212 1.037 1.34 1.146 1.016.87 1.972 1.806 2.926 2.742s1.85 1.938 2.74 2.936c.589.674 1.162 1.361 1.721 2.061-.825-1.055-.751-.919.225.405 1.574 2.213 2.926 4.575 4.196 6.972.642 1.212 1.204 2.463 1.766 3.713-1.113-2.478.548 1.733.578 1.821l.607 1.677 4.075 11.255 30.452 84.102 5.621 15.524c2.596 7.169 9.425 11.923 17.222 9.778 6.919-1.903 12.378-10.041 9.778-17.222l-23.761-65.62-13.977-38.6c-4.676-12.915-9.607-25.008-18.704-35.665-13.644-15.98-34.754-24.332-55.481-24.332h-26.624-92.382-21.324c-7.632 0-14 6.368-14 14V512.51 687.9v23.164c0 7.632 6.368 14 14 14h59.961c7.79 0 13.791-6.373 14-14 .038-1.401.108-2.792.212-4.189.186-1.709.185-1.838-.004-.387.141-.899.302-1.796.483-2.688.677-3.526 1.793-6.954 3.097-10.294-.969 2.483 1.171-2.203 1.409-2.654.818-1.557 1.756-3.046 2.709-4.522.483-.73.982-1.451 1.498-2.16a38.22 38.22 0 0 0 .228-.273c1.104-1.356 2.31-2.625 3.527-3.879s2.53-2.412 3.853-3.554c1.265-1.027 1.351-1.111.255-.25.706-.521 1.422-1.024 2.149-1.514 2.905-1.998 6.044-3.633 9.252-5.083-2.424 1.096 2.427-.764 2.911-.92 1.716-.552 3.472-.966 5.229-1.358.89-.188 1.784-.356 2.682-.504-1.457.169-1.331.16.377-.025 1.857-.195 3.727-.238 5.592-.26 1.403-.017 2.806.065 4.206.146a59.4 59.4 0 0 1 2.762.257c-1.449-.19-1.333-.15.348.119 3.543.622 6.994 1.688 10.358 2.942-2.475-.923 2.234 1.083 2.704 1.321 1.569.795 3.074 1.712 4.565 2.644.422.264 4.56 3.28 2.493 1.648 1.373 1.084 2.659 2.271 3.931 3.47s2.449 2.495 3.61 3.8a60.93 60.93 0 0 1 1.678 2.016c-.859-1.096-.806-.986.161.328 2.039 2.874 3.72 5.984 5.217 9.167-1.129-2.4.842 2.368 1.011 2.866.578 1.704 1.018 3.45 1.438 5.198.123.512.963 5.76.632 3.024.224 1.848.296 3.71.347 5.568.209 7.627 6.21 14 14 14 15.064 0 30.68 1.567 44.848-4.432 18.656-7.898 29.025-27.035 29.025-46.719V594.64v-48.563c0-7.632-6.368-14-14-14s-14.001 6.367-14.001 13.999z"/><path d="M629.835 317.252v104.774 192.226 96.81l14-14H520.23 352.462h-13.426l14 14c-1.094-39.951-33.411-72.055-73.46-72.521s-72.375 33.277-73.46 72.521l14-14h-35.615-18.159c-1.126 0-5.894-.243-3.504.081-1.325-.18-2.625-.511-3.918-.84-.238-.061-4.294-1.498-1.604-.359-1.199-.508-2.337-1.146-3.47-1.782a35.02 35.02 0 0 1-2.184-1.39c1.092.924 1.016.864-.228-.178-.991-.825-1.888-1.755-2.781-2.682-.211-.22-2.688-3.491-1.038-1.188-.755-1.055-1.391-2.188-2.024-3.315-.153-.273-1.726-4.101-.71-1.426-.47-1.238-.798-2.523-1.124-3.805-.081-.319-.608-4.533-.325-1.604-.094-.972-.106-1.957-.106-2.933v-5.871-31.348-145.343l-21.066 12.089c49.924 22.526 107.282 25.61 158.81 6.4 43.409-16.184 80.266-46.59 104.706-85.921 27.227-43.818 35.918-96.862 26.76-147.359l-13.5 17.722h146.161 54.119 9.254c11.598.002 21.046 9.823 21.265 21.242.147 7.629 6.257 14 14 14 7.521 0 14.147-6.368 14-14-.517-26.785-22.092-49.24-49.266-49.24h-15.222H509.3 399.034c-9.714 0-15.102 8.887-13.5 17.722 2.469 13.616 3.152 27.591 2.505 41.508-.128 2.771-.346 5.537-.593 8.299l-.427 4.112-.202 1.721c-.816 5.831-1.96 11.612-3.308 17.342-1.229 5.227-2.732 10.385-4.395 15.489-.826 2.534-1.731 5.042-2.662 7.539l-1.444 3.714-1.004 2.456c.55-1.311.498-1.208-.155.307-4.395 10.051-9.751 19.666-15.789 28.818-6.313 9.569-10.586 14.8-19.001 23.68-3.592 3.791-7.373 7.398-11.258 10.886-1.944 1.745-3.94 3.431-5.952 5.096l-3.054 2.458c2.098-1.666-1.983 1.486-2.368 1.771-8.794 6.511-18.197 12.178-27.961 17.104-9.505 4.795-17.078 7.732-28.771 11.186-8.658 2.556-17.514 4.404-26.441 5.718 1.46-.188 1.342-.174-.355.041l-4.104.455a193.93 193.93 0 0 1-6.896.567c-5.422.368-10.858.445-16.291.368-23.603-.334-47.837-5.726-69.22-15.374-9.375-4.229-21.066.633-21.066 12.089v149.378 29.106c0 15.122 4.149 29.165 15.351 39.968 8.99 8.669 21.532 13.528 33.982 13.528h13.436 40.929 1.093c7.792 0 13.789-6.373 14-14 .039-1.4.109-2.791.213-4.188.186-1.709.185-1.838-.003-.387a59.79 59.79 0 0 1 .484-2.688c.677-3.526 1.795-6.954 3.099-10.294-.969 2.483 1.172-2.203 1.41-2.654.819-1.557 1.757-3.047 2.709-4.522.483-.731.983-1.452 1.498-2.161-.875 1.083-.799.991.229-.274 1.104-1.356 2.31-2.625 3.527-3.878s2.53-2.413 3.853-3.556c1.265-1.027 1.351-1.11.255-.251.705-.52 1.421-1.024 2.149-1.513 2.905-1.998 6.043-3.634 9.25-5.084-2.423 1.096 2.426-.765 2.911-.921 1.715-.553 3.472-.966 5.229-1.359.89-.188 1.784-.356 2.682-.504-1.458.169-1.332.16.376-.025 1.857-.195 3.725-.238 5.59-.26 1.404-.017 2.806.065 4.207.146.922.064 1.843.15 2.761.258-1.448-.19-1.333-.151.348.118 3.543.623 6.994 1.688 10.359 2.943-2.475-.923 2.234 1.084 2.704 1.321 1.57.797 3.074 1.713 4.565 2.645.422.264 4.56 3.281 2.494 1.65 1.372 1.084 2.659 2.271 3.93 3.47s2.449 2.495 3.61 3.801c.574.659 1.133 1.331 1.678 2.016-.859-1.096-.806-.986.161.328 2.039 2.874 3.72 5.984 5.216 9.168-1.128-2.4.842 2.368 1.011 2.866.578 1.704 1.018 3.45 1.437 5.198.123.511.962 5.76.632 3.024.223 1.848.295 3.709.346 5.567.209 7.627 6.21 14 14 14h123.605 167.769 13.426c7.632 0 14-6.368 14-14V606.29 414.064v-96.81c0-7.632-6.368-14-14-14s-13.998 6.367-13.998 13.998zM808.72 712.015c-.117 10.157-2.324 17.519-8.801 26.992-2.392 3.499 1.694-1.96-.991 1.312-.828 1.01-1.721 1.963-2.612 2.915-1.785 1.905-3.752 3.631-5.769 5.285 2.19-1.797-1.204.779-1.383.901-1.083.74-2.213 1.408-3.342 2.075s-2.309 1.262-3.483 1.854c-.791.388-1.59.758-2.396 1.109 1.304-.567 1.185-.549-.355.057-2.518.934-5.122 1.607-7.74 2.19-.223.049-4.61.754-1.659.376-1.373.176-2.756.256-4.136.336-2.789.161-5.585.033-8.365-.192-4.438-.36 2.645.504-1.699-.256-1.773-.311-3.518-.762-5.254-1.231-1.289-.35-2.554-.786-3.816-1.223-4.065-1.404 2.344 1.157-1.561-.599-2.4-1.079-4.686-2.395-6.919-3.781-1.112-.69-2.177-1.454-3.24-2.216 2.296 1.645-1.069-.933-1.24-1.079-2.312-1.983-4.4-4.213-6.381-6.522-2.757-3.213 1.477 2.134-.991-1.312-.763-1.065-1.455-2.18-2.146-3.292-1.39-2.239-2.553-4.609-3.632-7.011 1.18 2.625-.423-1.416-.492-1.614-.438-1.267-.788-2.562-1.139-3.854-.354-1.305-.617-2.632-.88-3.957-.27-1.678-.307-1.788-.112-.329-.106-.914-.191-1.83-.255-2.749-.883-10.868 1.368-19.09 6.366-27.646 4.709-8.061 11.17-13.705 20.955-18.395 3.876-1.857-2.467.893 1.579-.616 1.258-.469 2.546-.852 3.831-1.233 1.298-.385 2.62-.681 3.94-.976.211-.048 4.616-.762 1.684-.386 2.776-.356 5.582-.42 8.377-.387 1.396.016 2.79.129 4.182.243 1.708.186 1.834.194.377.025a58.32 58.32 0 0 1 2.682.504c11.614 2.317 19.188 7.169 27.177 16.558 2.754 3.235-1.473-2.124.989 1.345 1.017 1.433 1.92 2.941 2.806 4.456.667 1.143 1.257 2.327 1.847 3.511.679 1.503.746 1.603.203.299.333.826.646 1.659.942 2.499 2.559 7.028 2.8 9.723 2.852 16.014.063 7.631 6.321 14 14 14 7.584 0 14.063-6.368 14-14-.212-25.802-13.692-49.29-35.51-62.913-22.208-13.867-50.884-13.502-73.633-1.322-22.739 12.175-36.461 36.532-37.746 61.878-1.303 25.709 12.535 49.692 33.377 63.94 22.271 15.224 52.227 15.164 75.601 2.718 23.424-12.473 37.608-38.121 37.911-64.301.088-7.632-6.436-14-14-14-7.698 0-13.912 6.37-14 14z"/><path d="M325.047 712.015c-.118 10.157-2.325 17.519-8.801 26.992-2.392 3.499 1.694-1.96-.991 1.312-.828 1.01-1.721 1.963-2.612 2.915-1.785 1.905-3.752 3.631-5.769 5.285 2.19-1.797-1.204.779-1.383.901-1.083.74-2.213 1.408-3.341 2.075s-2.309 1.262-3.483 1.854c-.791.388-1.59.758-2.397 1.109 1.304-.567 1.186-.549-.355.057-2.517.934-5.122 1.607-7.74 2.19-.223.049-4.61.754-1.659.376-1.373.176-2.755.256-4.136.336-2.788.161-5.585.033-8.365-.192-4.438-.36 2.645.504-1.699-.256-1.773-.311-3.518-.762-5.253-1.231-1.29-.35-2.554-.786-3.816-1.223-4.065-1.404 2.344 1.157-1.561-.599-2.4-1.079-4.686-2.395-6.919-3.781-1.112-.69-2.177-1.454-3.241-2.216 2.296 1.645-1.068-.933-1.239-1.079-2.313-1.983-4.4-4.213-6.381-6.522-2.757-3.213 1.477 2.134-.991-1.312-.763-1.065-1.455-2.18-2.146-3.292-1.39-2.239-2.553-4.609-3.632-7.011 1.18 2.625-.423-1.416-.491-1.614-.438-1.267-.789-2.562-1.139-3.854-.354-1.305-.617-2.632-.88-3.957-.269-1.678-.307-1.788-.113-.329-.106-.914-.191-1.83-.255-2.749-.882-10.868 1.369-19.09 6.367-27.646 4.709-8.061 11.17-13.705 20.955-18.395 3.877-1.857-2.466.893 1.58-.616 1.258-.469 2.545-.852 3.832-1.233 1.298-.385 2.62-.681 3.94-.976.211-.048 4.616-.762 1.684-.386 2.777-.356 5.582-.42 8.377-.387 1.397.016 2.79.129 4.181.243 1.709.186 1.834.194.377.025a58.07 58.07 0 0 1 2.682.504c11.614 2.317 19.187 7.169 27.176 16.558 2.754 3.235-1.473-2.124.989 1.345 1.017 1.433 1.92 2.941 2.806 4.456.667 1.143 1.257 2.327 1.846 3.511.679 1.503.746 1.603.203.299.333.826.647 1.659.942 2.499 2.558 7.03 2.793 9.721 2.851 16.014.07 7.631 6.315 14 14 14 7.579 0 14.07-6.368 14-14-.238-25.81-13.677-49.28-35.51-62.913-22.208-13.867-50.884-13.502-73.632-1.322-22.74 12.175-36.461 36.532-37.746 61.878-1.303 25.708 12.535 49.692 33.377 63.94 22.271 15.224 52.227 15.164 75.601 2.718 23.423-12.473 37.608-38.121 37.911-64.301.088-7.632-6.435-14-14-14-7.7 0-13.913 6.37-14.001 14zm486.176-179.939H707.705l14 14v-92.268l-14 14h35.3 18.991l3.939.04c-2.808-.081.856.271 1.402.426-2.714-.765.435.274 1.054.644-2.475-1.475.268.338.783.867-2.001-2.057.743 1.406 1.144 2.202-1.181-2.344.29 1.65.658 2.685l1.91 5.365 6.657 18.701 15.224 42.76 2.955 8.3c2.558 7.183 9.455 11.915 17.222 9.778 6.949-1.911 12.34-10.027 9.778-17.222l-24.836-69.761c-1.208-3.392-2.233-6.88-3.48-10.245-5.03-13.571-17.24-22.54-31.881-22.54h-36.239-20.581c-7.632 0-14 6.368-14 14v92.268c0 7.632 6.368 14 14 14h103.518c7.632 0 14-6.368 14-14s-6.368-14-14-14zM551.84 439.809h-93.388c-7.632 0-14 6.368-14 14s6.368 14 14 14h93.388c7.632 0 14-6.368 14-14s-6.368-14-14-14h0zm0 92.267H419.542 282.374h-.122c-7.632 0-14 6.368-14 14s6.368 14 14 14H414.55h137.168.122c7.632 0 14-6.368 14-14s-6.368-14-14-14h0zM137.093 265.009l105.848 105.848 18.822 18.822c12.778 12.778 32.577-7.021 19.799-19.799L175.714 264.032l-18.822-18.822c-12.779-12.778-32.578 7.02-19.799 19.799h0z"/><path d="M156.892 389.679L262.74 283.831l18.822-18.822c12.778-12.778-7.021-32.577-19.799-19.799L155.915 351.058l-18.822 18.822c-12.779 12.778 7.02 32.577 19.799 19.799h0z"/></svg>