<svg width="290" height="260" xmlns="http://www.w3.org/2000/svg" fill="#e30613">
 <g>
  <path id="svg_1" d="m157.68734,3.86855l1.37643,0.6994l0.70378,0.35837l3.28872,1.6626l3.87871,1.9637c2.19788,1.118 4.40419,2.20687 6.63676,3.25254c1.82995,0.85748 3.61646,1.76994 5.38935,2.74099c2.5535,1.39455 5.1767,2.60943 7.82064,3.81775c2.51071,1.14909 4.98187,2.35873 7.43682,3.62335l3.1999,1.62038l1.30414,0.65849l0.64932,0.32761l2.48542,1.2548l1.26427,0.63787l3.72668,1.88744l10.28369,5.08041l7.84106,3.89925l11.93373,5.91891l7.84074,3.89957l11.92919,5.91694l7.22643,3.58735l1.96383,0.98807l3.25468,1.64525l1.64841,0.83097c1.9969,1.03781 3.41969,1.97024 4.4499,4.05012c0.03307,0.69875 0.04441,1.39848 0.04636,2.09821l0.00324,0.6634l0.00486,2.22192l0.00584,1.60041l0.01102,4.41537l0.01005,3.78306l0.03047,13.5518l0.00195,1.07971l0.0308,21.21577l0.00486,4.6664l0.0013,1.17167l0.04214,18.79519l0.03404,19.28448l0.02302,10.8324l0.01394,9.22414l0.01102,4.70763l0.00195,4.30933l0.00843,1.5595c0.0483,3.88681 0.0483,3.88681 -0.77996,5.22016c-0.56211,0.5734 -1.1239,1.0293 -1.77452,1.4947l-0.82307,0.89086c-0.9012,0.8421 -1.76576,1.32975 -2.86697,1.87566l-0.5968,0.29914l-1.91294,0.94356l-1.32521,0.65915l-7.91659,3.84001c-2.22576,1.05352 -4.42332,2.16072 -6.61764,3.27905l-3.22648,1.63085l-1.29669,0.65457l-7.78012,3.92739l-0.64737,0.32696l-1.30706,0.65947l-3.08417,1.5631l-9.90409,4.88829l-6.08827,3.01493l-8.65441,4.27497l-8.00412,3.9719l-5.91159,2.90103l-10.41012,5.18547c-3.07704,1.57783 -6.2014,3.0398 -9.33873,4.49196a207.66755,209.66058 0 0 0 -7.70718,3.76833l-3.01609,1.52776l-4.77764,2.41764l-1.0662,0.54034l-2.10323,1.06825l-0.97381,0.49322l-0.87235,0.44281c-1.24741,0.5986 -2.26855,0.76257 -3.63947,0.8061l-1.02179,0.04844c-1.87371,-0.25332 -3.44465,-1.02309 -5.15757,-1.80758l-1.22083,-0.55245l-3.31109,-1.51925l-3.55584,-1.63805l-0.69762,-0.32106l-7.112,-3.21326l-19.86653,-8.97147l-7.80281,-3.53531l-8.32894,-3.77881l-5.26001,-2.36658l-5.28789,-2.434c-1.82962,-0.86959 -3.67319,-1.69925 -5.52777,-2.51255l-7.71464,-3.47607l-3.87774,-1.76405l-0.78741,-0.35772l-6.72235,-3.04602l-5.31577,-2.40586l-0.88077,-0.39863l-11.70519,-5.34976l-7.61414,-3.45643l-6.97909,-3.19002l-1.2231,-0.5662l-1.7207,-0.80021l-1.00882,-0.469c-1.03346,-0.53511 -1.95573,-1.13273 -2.90652,-1.80693l-0.65483,-0.31648c-0.83604,-0.46932 -1.34726,-0.88039 -1.93822,-1.64689c-0.39906,-1.72674 -0.34622,-3.44596 -0.32287,-5.2074l-0.01005,-1.62561l0.0081,-4.4661l-0.00454,-4.81695l0.00908,-9.43589l0.00973,-10.98361l0.02561,-19.59442l0.0201,-19.02265l0.00681,-20.70554l0.00162,-1.10556l0.00324,-2.19803l0.00259,-7.66038l0.01621,-9.33148l0.00648,-4.76327l0.01199,-4.35744l-0.00097,-1.57914l0.01037,-2.14141l0.00227,-1.20309c0.2629,-1.34186 0.80459,-1.80987 1.82509,-2.67881l0.79649,-0.70169c0.86424,-0.63689 1.68893,-1.06105 2.66955,-1.49077l1.07949,-0.47816l1.14822,-0.50009l1.1936,-0.52758l2.38785,-1.05352l4.29981,-1.93751l1.54727,-0.70431l0.82275,-0.37441l6.22572,-2.81889l6.78977,-3.08006l7.00632,-3.13897l5.78808,-2.60648l7.0329,-3.17006l8.59573,-3.88026l4.99937,-2.25629l7.76002,-3.49767l0.61593,-0.27884l6.82867,-3.09969l7.00016,-3.13602l8.44953,-3.81546l3.32276,-1.51368l0.72906,-0.33285l4.85641,-2.17021l7.87186,-3.50389l2.23743,-1.00149l7.43487,-3.41585l6.24841,-2.87158l1.12455,-0.51122c5.33813,-2.40356 8.05988,-2.85423 13.32151,-0.16364l0.00003,-0.00003zm-9.17795,11.12761l-0.71674,0.30143c-3.40348,1.44692 -6.76319,2.99726 -10.12939,4.53025l-6.39558,2.88009l-8.4142,3.79877l-4.9984,2.25596l-7.28089,3.27872l-1.80337,0.81461l-7.63132,3.51567c0.73879,0.82966 1.46104,1.28262 2.45398,1.76438l0.87656,0.42907l0.88369,0.42481l0.77477,0.37899l2.42642,1.1756l0.94626,0.45656l9.78188,4.67098l9.93748,4.79306l20.38294,9.65255c1.63285,0.73802 3.2362,1.52808 4.83405,2.3404c2.98594,1.51794 6.00236,2.96715 9.02364,4.41177l1.71227,0.8205l11.18003,5.27612a186.61585,188.40684 0 0 1 5.86718,2.86045l4.29754,2.10966l0.95047,0.45852l9.17827,4.3545l0.61755,0.28932l1.23315,0.57733l3.65795,1.74376l1.7515,0.84112l2.15542,1.04501c2.06238,0.98119 3.58793,1.57652 5.86135,0.89741c2.54896,-1.13534 5.03925,-2.37149 7.52175,-3.64724l9.71802,-4.80647c2.71591,-1.29375 5.39713,-2.65426 8.07706,-4.02198l7.53083,-3.73135c3.8236,-1.83835 7.59307,-3.75393 11.32202,-5.7821c-0.69567,-0.77108 -1.32878,-1.21258 -2.26531,-1.64656l-0.81724,-0.38554l-0.90865,-0.42252c-3.56232,-1.68649 -7.0812,-3.45251 -10.5962,-5.23652l-11.22087,-5.55922l-6.96936,-3.45709l-3.20541,-1.62038l-1.29669,-0.65457l-0.64834,-0.32728l-7.77947,-3.92707l-1.30447,-0.65784l-3.12048,-1.58765c-2.71007,-1.39128 -5.45451,-2.69419 -8.2184,-3.97354c-2.9639,-1.37197 -5.9009,-2.77896 -8.80482,-4.27562l-3.18952,-1.61514l-1.29669,-0.65457l-0.64834,-0.32728l-7.77947,-3.92707l-1.30382,-0.65784l-3.13279,-1.58765c-5.03114,-2.56131 -10.12193,-5.00186 -15.21694,-7.4303l-0.6438,-0.30732l-1.74696,-0.81755l-0.61755,-0.28735c-1.95573,-0.88399 -2.95126,-0.62315 -4.85285,0.18524l0.00032,0l-0.00002,0zm-64.23038,28.8611l-0.89601,0.40158l-0.94366,0.43856l-0.99391,0.44936l-2.99794,1.37066l-1.7019,0.76977l-3.99671,1.8174l-3.88455,1.76994l-0.79292,0.36067l-8.09845,3.64429l-7.45789,3.37068l-5.89765,2.65852l-6.48343,2.93671l-4.47713,1.9817c2.2115,1.8606 5.14914,2.87027 7.76002,4.02983l10.41401,4.72531l10.35307,4.70174l3.52537,1.5775l0.7255,0.32532l6.30514,2.85521l5.1057,2.30145l8.83173,4.00692l8.18112,3.7032l5.03082,2.272l8.20575,3.72284l0.61657,0.27917l7.83361,3.52778l5.8581,2.65001l7.41121,3.36152l0.61657,0.27917l7.81805,3.51927l3.77498,1.72838l0.88304,0.41074l1.67856,0.79072c1.7596,0.81624 3.37884,1.50681 5.34624,1.082c3.10783,-1.26855 6.07724,-2.80023 9.06546,-4.32995l5.94887,-2.92787l6.90064,-3.40472c1.52361,-0.77402 3.0618,-1.5127 4.60745,-2.2409c2.4543,-1.15662 4.87846,-2.36658 7.29613,-3.5988l3.27997,-1.65834l1.27886,-0.64573l5.8124,-2.93376l0,-0.98185l-0.50668,-0.24317l-2.43129,-1.16807l-0.93491,-0.44936l-4.65964,-2.24712l-8.47158,-4.06551l-0.72679,-0.3443l-3.55876,-1.68289l-7.29289,-3.57524c-2.123,-1.07676 -4.27226,-2.09297 -6.42832,-3.10002l-1.24352,-0.58387l-2.60375,-1.22175l-6.14694,-2.89318l-1.29669,-0.61071l-6.8397,-3.33141c-2.60699,-1.32517 -5.24088,-2.58717 -7.88385,-3.83674l-1.43835,-0.68206l-6.86595,-3.23126l-0.60944,-0.28474l-2.79339,-1.30029a183.9544,185.71985 0 0 1 -5.65615,-2.75539c-2.57911,-1.31109 -5.1848,-2.55935 -7.80022,-3.79452l-1.42246,-0.67355l-2.9545,-1.39848l-4.49367,-2.13257l-0.74073,-0.35216l-2.83845,-1.34971l-0.66066,-0.31419l-0.64996,-0.30928l-1.26654,-0.59893l-3.19114,-1.55001l-0.65547,-0.32368l-1.78165,-0.89086c-1.80434,-0.67846 -3.25825,-0.59795 -4.99905,0.1967l0.00032,0.00033l-0.00002,-0.00001zm-57.05063,31.46103l-0.0992,42.9444l-0.00746,5.06732l-0.00162,1.01916l-0.04182,16.34581l-0.03307,16.76571l-0.02691,10.34966l-0.01102,7.09222l-0.01102,4.09496l-0.00324,3.74706l-0.00778,1.35724c-0.11508,2.32273 -0.11508,2.32273 0.66455,4.42421c0.56373,0.51842 0.56373,0.51842 1.52361,1.01425l0.7725,0.43954l0.74948,0.33285l0.85452,0.38554l0.90541,0.39699l0.95436,0.42776l1.95249,0.87057l3.38079,1.53397l7.87478,3.5088c3.33216,1.45575 6.65427,2.93147 9.88723,4.60258c0.84155,0.43201 1.68861,0.79595 2.56938,1.13796c2.13791,0.85617 4.22331,1.82656 6.31389,2.79303l2.86114,1.31895l1.42279,0.65555l11.88283,5.391l15.79947,7.14916l6.57096,2.97795l5.31836,2.40586l0.88077,0.39863l10.27948,4.69454l11.20499,5.08957l2.82969,1.26789l1.45877,0.65391l3.82749,1.73362l0.80719,0.36819l1.53463,0.70562c1.36314,0.62544 1.36314,0.62544 2.83585,0.79792l0.12383,-29.04045l0.01459,-3.49178l0.00292,-0.70169l0.04117,-9.64829l0.11573,-29.76702l0.05414,-13.61136l0.03307,-9.02678l0.0214,-5.17303l0.01588,-4.72334l0.00908,-1.70711l0.00519,-2.30963l0.00519,-1.29604c-0.1274,-1.19327 -0.37734,-1.79416 -1.09051,-2.74296c-1.32878,-1.03487 -2.75611,-1.72183 -4.29527,-2.3728l-1.39912,-0.60613l-0.72452,-0.31223l-3.36685,-1.49535l-0.70961,-0.31877l-15.29636,-6.92236l-0.77185,-0.35052l-3.96527,-1.80627l-7.17619,-3.20246c-1.72719,-0.74064 -3.42909,-1.52743 -5.12613,-2.33483l-5.45743,-2.49455l-5.48336,-2.47328l-0.82404,-0.37474l-1.65003,-0.75079l-12.60509,-5.71796l-7.5519,-3.42501l-6.64908,-2.99889l-10.47139,-4.75411l-11.1904,-5.07288l-0.78255,-0.35019l-3.9147,-1.74933l-1.47077,-0.65784l-0.67071,-0.29815c-1.33656,-0.59893 -2.63843,-1.24073 -3.92928,-1.93522c-0.61722,-0.30928 -0.61722,-0.30928 -1.54403,-0.24513l0,-0.00065l-0.00001,-0.00003zm233.52509,1.39095l-1.41955,0.72493l-0.78514,0.40256l-13.44502,6.68802l-7.81221,3.88485l-11.05231,5.4738l-6.08827,3.01493l-8.65473,4.27529l-8.00412,3.9719l-5.91159,2.90103l-7.37361,3.64364c-1.63577,0.83097 -3.28807,1.62398 -4.94491,2.41109l-5.73362,2.80252l-0.64121,0.32499l-3.11594,1.59419c-2.48251,1.27248 -4.98932,2.47033 -7.52824,3.62433c-2.1726,0.98741 -4.33223,1.99152 -6.46301,3.06828l-0.60847,0.30699c-2.60958,1.20964 -2.60958,1.20964 -4.5987,3.17071c-0.09693,0.87417 -0.09693,0.87417 -0.07975,1.87926l-0.00389,1.19425l0.00584,1.31895l-0.00162,1.39586l0.00454,3.84426l0.0013,4.14209l0.00519,7.1796l0.00778,10.38075l0.01199,16.84099l0.01329,16.36184l0.00065,1.01818l0.00259,5.05717l0.03209,41.97139l1.06847,-0.45787l0.60101,-0.25757c0.95598,-0.42481 1.87922,-0.91083 2.8083,-1.39161c2.37002,-1.21389 4.77667,-2.34007 7.19272,-3.45676c2.9639,-1.37164 5.9009,-2.77896 8.80482,-4.27562l3.1892,-1.61547l1.29669,-0.65457l2.59337,-1.30913l0.61236,-0.30895l1.29344,-0.6526l3.18434,-1.61056l10.0075,-4.95539l11.7898,-5.89763c2.54929,-1.30782 5.14395,-2.50175 7.75094,-3.68651c2.43615,-1.11145 4.82983,-2.29131 7.21087,-3.51763l3.2106,-1.62594l3.85602,-1.95224c2.57943,-1.3124 5.1767,-2.57964 7.79049,-3.82168c2.30065,-1.09607 4.57633,-2.23763 6.84715,-3.39523l3.22583,-1.63118l1.2915,-0.65195l3.31368,-1.67241l1.3116,-0.66406l3.01933,-1.49339l1.05226,-0.50892l0.91805,-0.43463c0.85776,-0.52267 1.21921,-0.91116 1.73594,-1.77453c0.14426,-0.90428 0.14426,-0.90428 0.11962,-1.91428l0.00584,-1.19295l-0.00843,-1.31208l0.00259,-1.39259l-0.00648,-3.83084l-0.00195,-4.12933l-0.0081,-7.15604l-0.01167,-10.34639l-0.01783,-16.786l-0.0201,-16.30752l-0.00065,-1.0149l-0.00357,-5.04114l-0.04895,-41.83426c-1.04286,0 -1.88473,0.59205 -2.79598,1.06367l0.00003,0.00004zm-30.55317,32.56463l0.908,-0.00753c3.60252,0.01015 6.24354,0.73868 9.10079,3.03489c3.54125,3.68553 4.02459,8.07145 4.00871,12.98658c-0.1663,7.61063 -2.79825,14.32255 -7.25042,20.39626l-0.65353,0.90003c-0.9965,1.32975 -2.03904,2.53055 -3.23653,3.68193l-0.53197,0.59205c-1.68764,1.8282 -3.5594,3.30392 -5.54625,4.78782l-0.81367,0.61038c-1.24417,0.91476 -2.35154,1.65474 -3.80577,2.19214l0.32417,0.65457a100.39918,101.36273 0 0 1 0.34459,2.88434l0.08915,0.80086l0.14912,1.53594c0.05835,0.71151 0.05835,0.71151 0.2428,1.56605c-0.26939,1.12487 -1.01142,1.4515 -1.95508,2.04748l-0.75467,0.45198l-0.76926,0.48012l-1.5249,0.94127c-0.82566,0.50631 -1.63642,1.03421 -2.44685,1.56507l-4.9031,3.08889l-0.78514,0.49354l-0.73587,0.45656l-0.66163,0.4127c-0.55271,0.29357 -0.55271,0.29357 -1.20106,0.29357l-0.36502,-0.71773l-1.39005,-2.72299l-0.62046,-1.21651c-1.03151,-2.02555 -2.06659,-4.04358 -3.20865,-6.00891l-0.46421,-0.80315l-0.86586,-1.43906c-0.60782,-1.04076 -0.88045,-1.66783 -0.7618,-2.88434c0.71318,-1.17724 1.55991,-1.5631 2.77329,-2.08512c4.69076,-2.19738 9.13451,-4.83004 13.00738,-8.3048l0.61431,-0.47947c3.44173,-2.7063 6.27142,-7.21167 6.84132,-11.62999c0.17051,-2.26741 0.26355,-4.55643 -0.97251,-6.54565c-1.32651,-1.42859 -2.46403,-2.01606 -4.39512,-2.10966c-8.27999,-0.19473 -16.24326,4.87357 -22.43138,10.05772c-0.72809,0.56129 -0.72809,0.56129 -1.37643,0.56129l-0.46486,-0.94977l-0.64964,-1.32059l-0.34622,-0.70464c-0.63213,-1.27837 -1.27918,-2.54593 -1.95443,-3.80172l-0.40392,-0.75373l-0.78547,-1.44135c-0.62338,-1.15825 -0.90638,-1.79253 -0.90638,-3.13766a21.79405,22.00322 0 0 1 2.06659,-1.73853l0.62857,-0.48176l1.84324,-1.37982l0.89796,-0.6634c2.5133,-1.80791 5.07458,-3.52582 7.84625,-4.90106l1.78262,-0.91214c8.16945,-4.24027 17.10945,-8.4128 26.46926,-8.33295l-0.00001,0zm-178.34429,-8.42197l1.87728,0.89217l3.01123,1.42041l1.97907,0.93439c2.40017,1.13076 4.78121,2.28902 7.14118,3.50323c1.47952,0.75242 2.97719,1.45968 4.48491,2.15254l0.61171,0.28212l3.05467,1.39521c4.48394,2.06254 4.48394,2.06254 5.51935,3.96928c0.46746,1.85078 0.44185,3.72219 -0.1556,5.53173c-0.86197,1.21847 -1.85945,2.14534 -3.20119,2.82281c-3.09714,0.39078 -5.23732,-0.41958 -7.9422,-1.86126l-1.72621,-0.87777l-1.18809,-0.60711c-2.08993,-1.07316 -4.21488,-2.06679 -6.34501,-3.05617l-1.13233,-0.52987l-5.67171,-2.62546c-10.41661,-4.78193 -10.41661,-4.78193 -11.65364,-6.80617c-0.58221,-1.76307 -0.63635,-3.8387 -0.11411,-5.63024c0.60847,-1.20735 1.46947,-2.07137 2.6796,-2.65917c3.21027,-1.04403 5.9184,0.35019 8.77111,1.74933l-0.00002,0zm-0.51738,21.41116l2.24392,1.08789l1.11385,0.54623c1.48762,0.721 2.99405,1.39553 4.50372,2.0681a122.77026,123.94851 0 0 1 6.02116,2.90398c1.52361,0.7809 3.06731,1.51172 4.62074,2.2301l0.65547,0.30405l2.64719,1.22076l1.87144,0.86174l1.1038,0.50532c1.38875,0.76061 2.63973,1.58176 3.4158,3.01035c0.46746,1.85078 0.44185,3.72219 -0.1556,5.53173c-1.09797,1.55165 -2.14342,2.46411 -3.95068,2.98645c-3.12923,0.4942 -6.32199,-1.659 -9.08134,-2.9858l-2.14634,-1.02538l-6.91458,-3.40014c-2.93343,-1.49077 -5.91192,-2.86798 -8.91601,-4.20722l-2.17811,-0.98185l-1.11936,-0.49092c-2.23711,-1.01818 -3.75293,-1.81969 -4.87781,-4.09103c-0.32158,-4.5201 -0.32158,-4.5201 0.97251,-6.21837c3.49684,-2.72136 6.51066,-1.69794 10.17088,0.14335l-0.00065,0.00065l0,0.00001z"/>
  <path id="svg_2" fill="#e30613" d="m221.51993,174.82383c1.6826,1.09476 3.19716,2.8453 3.93075,5.23803c0.37381,1.87632 -0.2699,3.52858 -0.89613,5.15649c-1.79732,4.09523 -4.35997,7.13237 -7.25895,9.67395l-0.50278,0.4592c-1.48329,1.20632 -3.12658,1.10456 -4.76941,0.59637c-1.84813,-0.81412 -3.31233,-2.16929 -4.26824,-4.532c-0.44669,-1.4285 -0.54048,-2.62628 -0.19311,-4.13569c1.38213,-4.68844 4.01374,-8.19995 6.97503,-11.03419l0.56669,-0.59984c1.90859,-1.85989 4.23697,-1.85831 6.41638,-0.82233l-0.00023,0l0,0.00001z"/>
 </g>

</svg>